P1
# Created by GIMP version 2.10.30 PNM plug-in
70 30
0000000000000000000000000000000000000000000000000000000000000000000000
0000000000000000000000000000000000000000000000000000000000000000000000
0000000000000000000000000000000000000000000000000000000000000000000000
0000000000000000000000000000000000000000000000000000000000000000000000
0000110000000000000000000000000000000000000000000000000000000000000000
0000110000000000000000000000000000000000000000000000000000000000000000
0000110000000000000001111111111011000000000000000000001100000000000000
0000110000000000000001111111111111111100000000000000011110000000000000
0000110000000000000001111111111111111000000000000000111110000000000000
0000110000000000000001110000000000000000000000000000110011000000000000
0001110000000000000001110000000000000000000000000001100011000000000000
0001110000000000000001110000000000000000000000000011000001100000000000
0001110000000000000001110000000000000000000000000011000001100000000000
0001110000000000000001110000000000000000000000000110000000110000000000
0001110000000000000001110000000000000000000000001100000000110000000000
0001110000000000000001110000000000000000000000011100000000011000000000
0000110000000000000001110000000000000000000000011000000000011000000000
0001110000000000000001111111111111100000000000110000000000001100000000
0000110000000000000001110000000000000000000000111111111111111110000000
0000110000000000000001110000000000000000000001111111111111111110000000
0000110000000000000001110000000000000000000011000000000000000111000000
0000110000000000000001110000000000000000000011000000000000000011100000
0000110000000000000001110000000000000000000110000000000000000001110000
0000110000000000000001110000000000000000001100000000000000000001110000
0000111111111111000001111111111111110000011100000000000000000000111000
0000111111111111100000111111111111111000011000000000000000000000011100
0000000000000000100000100000000000000000011000000000000000000000001100
0000000000000000000000000000000000000000000000000000000000000000000000
0000000000000000000000000000000000000000000000000000000000000000000000
0000000000000000000000000000000000000000000000000000000000000000000000